<svg width="200" height="80" viewBox="0 0 200 80" xmlns="http://www.w3.org/2000/svg">
  <!-- Logo OPSIO avec cercle de points -->
  <g>
    <!-- Cercle de points décoratifs -->
    <g fill="#00B5A5">
      <!-- Points du cercle externe -->
      <circle cx="25" cy="15" r="2"/>
      <circle cx="30" cy="12" r="2"/>
      <circle cx="36" cy="11" r="2"/>
      <circle cx="42" cy="12" r="2"/>
      <circle cx="47" cy="15" r="2"/>
      <circle cx="51" cy="19" r="2"/>
      <circle cx="54" cy="24" r="2"/>
      <circle cx="55" cy="30" r="2"/>
      <circle cx="54" cy="36" r="2"/>
      <circle cx="51" cy="41" r="2"/>
      <circle cx="47" cy="45" r="2"/>
      <circle cx="42" cy="48" r="2"/>
      <circle cx="36" cy="49" r="2"/>
      <circle cx="30" cy="48" r="2"/>
      <circle cx="25" cy="45" r="2"/>
      <circle cx="21" cy="41" r="2"/>
      <circle cx="18" cy="36" r="2"/>
      <circle cx="17" cy="30" r="2"/>
      <circle cx="18" cy="24" r="2"/>
      <circle cx="21" cy="19" r="2"/>
      
      <!-- Points du cercle interne -->
      <circle cx="28" cy="20" r="1.5"/>
      <circle cx="32" cy="18" r="1.5"/>
      <circle cx="36" cy="17" r="1.5"/>
      <circle cx="40" cy="18" r="1.5"/>
      <circle cx="44" cy="20" r="1.5"/>
      <circle cx="47" cy="24" r="1.5"/>
      <circle cx="48" cy="28" r="1.5"/>
      <circle cx="48" cy="32" r="1.5"/>
      <circle cx="47" cy="36" r="1.5"/>
      <circle cx="44" cy="40" r="1.5"/>
      <circle cx="40" cy="42" r="1.5"/>
      <circle cx="36" cy="43" r="1.5"/>
      <circle cx="32" cy="42" r="1.5"/>
      <circle cx="28" cy="40" r="1.5"/>
      <circle cx="25" cy="36" r="1.5"/>
      <circle cx="24" cy="32" r="1.5"/>
      <circle cx="24" cy="28" r="1.5"/>
      <circle cx="25" cy="24" r="1.5"/>
    </g>
    
    <!-- Texte OPSIO -->
    <text x="75" y="35" font-family="Arial, sans-serif" font-size="28" font-weight="bold" fill="#00B5A5">OPSIO</text>
    
    <!-- Sous-titre -->
    <text x="75" y="50" font-family="Arial, sans-serif" font-size="10" fill="#666666">LA CROISSANCE SEREINE</text>
  </g>
</svg>
